<?xml version="1.0" encoding="UTF-8"?>
<svg width="347px" height="347px" viewBox="0 0 347 347" version="1.1" xmlns="http://www.w3.org/2000/svg" xmlns:xlink="http://www.w3.org/1999/xlink">
    <title>Artboard Copy</title>
    <g id="Artboard-Copy" stroke="none" stroke-width="1" fill="none" fill-rule="evenodd">
        <path d="M299,173.361538 C299,242.12099 243.259451,297.861538 174.5,297.861538 C105.740549,297.861538 50,242.12099 50,173.361538 C50,104.602087 105.740549,48.8615385 174.5,48.8615385 C207.519453,48.8615385 239.186515,61.9784651 262.534794,85.3267442 C285.883073,108.675023 299,140.342085 299,173.361538 Z" id="Path" fill="#00ECB3" fill-rule="nonzero" opacity="0.949627976"></path>
        <path d="M324.999861,264.124167 C323.107101,267.280443 320.032674,269.554447 316.456169,270.44352 C312.879664,271.332592 309.095615,270.763516 305.940472,268.862083 L188.361373,198.433125 L188.361373,326.166667 C188.361373,333.806606 182.155425,340 174.5,340 C166.844575,340 160.638627,333.806606 160.638627,326.166667 L160.638627,198.433125 L43.0248741,268.862083 C38.7755429,271.467358 33.4513916,271.593694 29.0827905,269.192913 C24.7141893,266.792131 21.9746514,262.234363 21.9076923,257.257719 C21.8431529,252.281075 24.4613289,247.652809 28.7649863,245.137917 L147.556956,174 L28.7649863,102.862083 C24.4613289,100.347191 21.8431529,95.7189254 21.9076923,90.742281 C21.9746514,85.7656366 24.7141893,81.2078691 29.0827905,78.8070874 C33.4513916,76.4063057 38.7755429,76.5326415 43.0248741,79.1379167 L160.638627,149.566875 L160.638627,21.8333333 C160.638627,14.1933943 166.844575,8 174.5,8 C182.155425,8 188.361373,14.1933943 188.361373,21.8333333 L188.361373,149.566875 L305.975126,79.1379167 C310.224457,76.5326415 315.548608,76.4063057 319.91721,78.8070874 C324.285811,81.2078691 327.025349,85.7656366 327.092308,90.742281 C327.156847,95.7189254 324.538671,100.347191 320.235014,102.862083 L201.443044,174 L320.235014,245.137917 C323.39108,247.023836 325.66655,250.0844 326.560264,253.645537 C327.453978,257.206674 326.892632,260.976296 324.999861,264.124167 Z" id="Path" fill="#000000" fill-rule="nonzero"></path>
    </g>
</svg>