<?xml version="1.0" encoding="UTF-8"?>
<svg width="1162px" height="347px" viewBox="0 0 1162 347" version="1.1" xmlns="http://www.w3.org/2000/svg" xmlns:xlink="http://www.w3.org/1999/xlink">
    <title>Artboard Copy 4</title>
    <g id="Artboard-Copy-4" stroke="none" stroke-width="1" fill="none" fill-rule="evenodd">
        <path d="M299,173.361538 C299,242.12099 243.259451,297.861538 174.5,297.861538 C105.740549,297.861538 50,242.12099 50,173.361538 C50,104.602087 105.740549,48.8615385 174.5,48.8615385 C207.519453,48.8615385 239.186515,61.9784651 262.534794,85.3267442 C285.883073,108.675023 299,140.342085 299,173.361538 Z" id="Path" fill="#00ECB3" fill-rule="nonzero" opacity="0.949627976"></path>
        <path d="M324.999861,264.124167 C323.107101,267.280443 320.032674,269.554447 316.456169,270.44352 C312.879664,271.332592 309.095615,270.763516 305.940472,268.862083 L188.361373,198.433125 L188.361373,326.166667 C188.361373,333.806606 182.155425,340 174.5,340 C166.844575,340 160.638627,333.806606 160.638627,326.166667 L160.638627,198.433125 L43.0248741,268.862083 C38.7755429,271.467358 33.4513916,271.593694 29.0827905,269.192913 C24.7141893,266.792131 21.9746514,262.234363 21.9076923,257.257719 C21.8431529,252.281075 24.4613289,247.652809 28.7649863,245.137917 L147.556956,174 L28.7649863,102.862083 C24.4613289,100.347191 21.8431529,95.7189254 21.9076923,90.742281 C21.9746514,85.7656366 24.7141893,81.2078691 29.0827905,78.8070874 C33.4513916,76.4063057 38.7755429,76.5326415 43.0248741,79.1379167 L160.638627,149.566875 L160.638627,21.8333333 C160.638627,14.1933943 166.844575,8 174.5,8 C182.155425,8 188.361373,14.1933943 188.361373,21.8333333 L188.361373,149.566875 L305.975126,79.1379167 C310.224457,76.5326415 315.548608,76.4063057 319.91721,78.8070874 C324.285811,81.2078691 327.025349,85.7656366 327.092308,90.742281 C327.156847,95.7189254 324.538671,100.347191 320.235014,102.862083 L201.443044,174 L320.235014,245.137917 C323.39108,247.023836 325.66655,250.0844 326.560264,253.645537 C327.453978,257.206674 326.892632,260.976296 324.999861,264.124167 Z" id="Path" fill="#000000" fill-rule="nonzero"></path>
        <g id="Aura" transform="translate(346.7188, 78.75)" fill="#FFFFFF" fill-rule="nonzero">
            <path d="M108.75,0 C126.145833,0 135.989583,0.572916667 138.28125,1.71875 C140.572917,2.86458333 150.833333,30.234375 169.0625,83.828125 C187.291667,137.421875 200.46875,174.427083 208.59375,194.84375 L223.28125,194.84375 C225.052083,198.59375 225.9375,202.447917 225.9375,206.40625 C225.9375,210.052083 225.260417,212.604167 223.90625,214.0625 C222.552083,215.520833 220.364583,216.25 217.34375,216.25 L137.5,216.25 C135.729167,211.666667 134.84375,207.239583 134.84375,202.96875 C134.84375,200.15625 135.625,198.098958 137.1875,196.796875 C138.75,195.494792 141.041667,194.84375 144.0625,194.84375 L150.9375,194.84375 C149.375,187.34375 145.364583,172.395833 138.90625,150 L72.65625,150 C66.8229167,171.875 63.1770833,186.822917 61.71875,194.84375 L76.5625,194.84375 C78.3333333,198.59375 79.21875,202.447917 79.21875,206.40625 C79.21875,210.052083 78.5416667,212.604167 77.1875,214.0625 C75.8333333,215.520833 73.6979167,216.25 70.78125,216.25 L2.65625,216.25 C0.885416667,211.666667 0,207.239583 0,202.96875 C0,200.15625 0.755208333,198.098958 2.265625,196.796875 C3.77604167,195.494792 6.04166667,194.84375 9.0625,194.84375 L17.5,194.84375 C24.8958333,174.739583 36.0677083,142.109375 51.015625,96.953125 C65.9635417,51.796875 75.8854167,24.3489583 80.78125,14.609375 C85.6770833,4.86979167 95,0 108.75,0 Z M131.25,123.90625 C115.3125,71.40625 106.380208,45.15625 104.453125,45.15625 C102.526042,45.15625 94.21875,71.40625 79.53125,123.90625 L131.25,123.90625 Z" id="Shape"></path>
            <path d="M385.625,147.1875 C385.625,167.916667 386.380208,180.755208 387.890625,185.703125 C389.401042,190.651042 393.229167,192.864583 399.375,192.34375 C400.833333,195.78125 401.5625,199.0625 401.5625,202.1875 C401.5625,207.291667 397.760417,211.171875 390.15625,213.828125 C382.552083,216.484375 375.572917,217.8125 369.21875,217.8125 C364.322917,217.8125 360.885417,217.057292 358.90625,215.546875 C356.927083,214.036458 353.854167,210.260417 349.6875,204.21875 C340,209.114583 330.703125,212.864583 321.796875,215.46875 C312.890625,218.072917 303.385417,219.375 293.28125,219.375 C279.947917,219.375 269.479167,215.859375 261.875,208.828125 C254.270833,201.796875 250.46875,187.5 250.46875,165.9375 C250.46875,133.75 250.286458,113.880208 249.921875,106.328125 C249.557292,98.7760417 248.75,93.2552083 247.5,89.765625 C246.25,86.2760417 244.583333,84.0885417 242.5,83.203125 C240.416667,82.3177083 237.395833,81.875 233.4375,81.875 C231.5625,78.9583333 230.625,75.5729167 230.625,71.71875 C230.625,66.9270833 233.541667,63.59375 239.375,61.71875 C245.208333,59.84375 254.427083,58.90625 267.03125,58.90625 C276.09375,58.90625 282.5,59.453125 286.25,60.546875 C290,61.640625 292.317708,63.28125 293.203125,65.46875 C294.088542,67.65625 294.53125,75 294.53125,87.5 L294.53125,143.125 C294.53125,163.4375 296.458333,176.71875 300.3125,182.96875 C304.166667,189.21875 309.635417,192.34375 316.71875,192.34375 C322.03125,192.34375 326.927083,191.171875 331.40625,188.828125 C335.885417,186.484375 338.697917,183.411458 339.84375,179.609375 C340.989583,175.807292 341.5625,168.958333 341.5625,159.0625 C341.5625,131.458333 341.510417,113.90625 341.40625,106.40625 C341.302083,98.90625 340.729167,93.3854167 339.6875,89.84375 C338.645833,86.3020833 337.317708,84.0885417 335.703125,83.203125 C334.088542,82.3177083 331.302083,81.875 327.34375,81.875 C325.46875,78.9583333 324.53125,75.5729167 324.53125,71.71875 C324.53125,66.9270833 327.473958,63.59375 333.359375,61.71875 C339.244792,59.84375 347.5,58.90625 358.125,58.90625 C367.1875,58.90625 373.59375,59.453125 377.34375,60.546875 C381.09375,61.640625 383.411458,63.515625 384.296875,66.171875 C385.182292,68.828125 385.625,76.4583333 385.625,89.0625 L385.625,147.1875 Z" id="Path"></path>
            <path d="M423.75,69.375 C423.75,65.625 425.130208,63.1770833 427.890625,62.03125 C430.651042,60.8854167 447.864583,59.84375 479.53125,58.90625 C480.052083,63.28125 480.052083,69.3229167 479.53125,77.03125 C492.65625,69.3229167 504.53125,64.1145833 515.15625,61.40625 C525.78125,58.6979167 535.15625,57.34375 543.28125,57.34375 C547.03125,57.34375 549.53125,57.7864583 550.78125,58.671875 C552.03125,59.5572917 552.65625,61.6145833 552.65625,64.84375 C552.65625,70.5729167 551.796875,76.5364583 550.078125,82.734375 C548.359375,88.9322917 546.223958,92.9166667 543.671875,94.6875 C541.119792,96.4583333 537.083333,97.7604167 531.5625,98.59375 C526.041667,99.4270833 522.838542,99.6354167 521.953125,99.21875 C521.067708,98.8020833 518.125,95.3125 513.125,88.75 C505.416667,88.75 499.505208,91.5364583 495.390625,97.109375 C491.276042,102.682292 489.21875,117.03125 489.21875,140.15625 C489.21875,161.302083 489.479167,179.53125 490,194.84375 L514.53125,194.84375 C516.40625,198.28125 517.34375,202.135417 517.34375,206.40625 C517.34375,210.052083 516.588542,212.604167 515.078125,214.0625 C513.567708,215.520833 510.625,216.25 506.25,216.25 L426.5625,216.25 C424.6875,211.875 423.75,207.760417 423.75,203.90625 C423.75,200.677083 424.479167,198.359375 425.9375,196.953125 C427.395833,195.546875 429.739583,194.84375 432.96875,194.84375 L444.375,194.84375 C444.895833,179.53125 445.15625,161.770833 445.15625,141.5625 C445.15625,112.395833 443.776042,95.15625 441.015625,89.84375 C438.255208,84.53125 433.4375,81.875 426.5625,81.875 C424.6875,77.7083333 423.75,73.5416667 423.75,69.375 Z" id="Path"></path>
            <path d="M668.28125,204.21875 C660.46875,208.177083 651.5625,211.692708 641.5625,214.765625 C631.5625,217.838542 622.135417,219.375 613.28125,219.375 C598.177083,219.375 587.109375,215.885417 580.078125,208.90625 C573.046875,201.927083 569.53125,192.135417 569.53125,179.53125 C569.53125,161.927083 575.572917,148.854167 587.65625,140.3125 C599.739583,131.770833 618.802083,127.5 644.84375,127.5 L661.875,127.5 C660.9375,111.458333 658.28125,100.494792 653.90625,94.609375 C649.53125,88.7239583 642.96875,85.78125 634.21875,85.78125 C629.427083,85.78125 624.21875,86.40625 618.59375,87.65625 C614.947917,94.53125 612.786458,98.1770833 612.109375,98.59375 C611.432292,99.0104167 607.838542,99.9479167 601.328125,101.40625 C594.817708,102.864583 590.208333,102.395833 587.5,100 C584.791667,97.6041667 582.057292,93.3854167 579.296875,87.34375 C576.536458,81.3020833 575.15625,76.1979167 575.15625,72.03125 C575.15625,69.4270833 576.223958,67.3958333 578.359375,65.9375 C580.494792,64.4791667 588.385417,62.9166667 602.03125,61.25 C615.677083,59.5833333 630.208333,58.75 645.625,58.75 C663.958333,58.75 678.333333,61.9010417 688.75,68.203125 C699.166667,74.5052083 704.375,86.71875 704.375,104.84375 L704.375,146.25 C704.375,169.270833 705.364583,183.411458 707.34375,188.671875 C709.322917,193.932292 712.864583,195.989583 717.96875,194.84375 C719.53125,197.760417 720.3125,200.625 720.3125,203.4375 C720.3125,208.125 717.526042,211.692708 711.953125,214.140625 C706.380208,216.588542 698.854167,217.8125 689.375,217.8125 C685.208333,217.8125 681.927083,217.291667 679.53125,216.25 C677.135417,215.208333 673.385417,211.197917 668.28125,204.21875 Z M661.875,152.34375 C654.375,150.78125 646.770833,150 639.0625,150 C630.3125,150 624.0625,151.458333 620.3125,154.375 C616.5625,157.291667 614.6875,162.8125 614.6875,170.9375 C614.6875,178.020833 616.536458,183.359375 620.234375,186.953125 C623.932292,190.546875 629.322917,192.34375 636.40625,192.34375 C642.03125,192.34375 647.005208,191.145833 651.328125,188.75 C655.651042,186.354167 658.489583,182.942708 659.84375,178.515625 C661.197917,174.088542 661.875,168.333333 661.875,161.25 L661.875,152.34375 Z" id="Shape"></path>
        </g>
    </g>
</svg>